<svg viewBox="0 0 12 12" width="168px" height="168px" xmlns="http://www.w3.org/2000/svg"><path fill-rule="evenodd" d="M 1,0 4,0 4,2 5,2 5,3 7,3 7,2 8,2 8,0 11,0 11,8 12,8 12,11 9,11 9,10 3,10 3,11 0,11 0,8 1,8z" fill="#BD6BBD"/><path fill-rule="evenodd" d="M 2,1 3,1 3,3 4,3 4,4 2,4z" fill="#ffffff"/><path fill-rule="evenodd" d="M 9,1 10,1 10,4 8,4 8,3 9,3z" fill="#ffffff"/><path fill-rule="evenodd" d="M 5,4 7,4 7,5 5,5z" fill="#ffffff"/><path fill-rule="evenodd" d="M 3,5 4,5 4,6 3,6z" fill="#ffffff"/><path fill-rule="evenodd" d="M 8,5 9,5 9,6 8,6z" fill="#ffffff"/><path fill-rule="evenodd" d="M 2,6 3,6 3,7 2,7z" fill="#ffffff"/><path fill-rule="evenodd" d="M 4,6 5,6 5,7 4,7z" fill="#ffffff"/><path fill-rule="evenodd" d="M 7,6 8,6 8,7 7,7z" fill="#ffffff"/><path fill-rule="evenodd" d="M 9,6 10,6 10,7 9,7z" fill="#ffffff"/><path fill-rule="evenodd" d="M 4,8 5,8 5,9 4,9z" fill="#ffffff"/><path fill-rule="evenodd" d="M 7,8 8,8 8,9 7,9z" fill="#ffffff"/><path fill-rule="evenodd" d="M 1,9 2,9 2,10 1,10z" fill="#ffffff"/><path fill-rule="evenodd" d="M 10,9 11,9 11,10 10,10z" fill="#ffffff"/></svg>